<svg width="67" height="66" viewBox="0 0 67 66" fill="none" xmlns="http://www.w3.org/2000/svg">
<path d="M0 63.25H11.6742V25.3H0V63.25ZM64.2083 28.4625C64.2083 24.9838 61.5816 22.1375 58.3712 22.1375H39.9551L42.7277 7.68488L42.8153 6.67287C42.8153 5.37625 42.3191 4.1745 41.5311 3.32063L38.4374 0L19.2333 20.8409C18.1534 21.9794 17.5114 23.5606 17.5114 25.3V56.925C17.5114 60.4038 20.1381 63.25 23.3485 63.25H49.6155C52.0379 63.25 54.1101 61.6688 54.9857 59.3918L63.7997 37.0961C64.0624 36.3688 64.2083 35.6098 64.2083 34.7875V28.4625Z" fill="#4E9C64"/>
</svg>
