<svg width="600" height="400" viewBox="0 0 600 400" fill="none" xmlns="http://www.w3.org/2000/svg">
<g clip-path="url(#clip0)">
<path d="M297.057 322.315C259.041 322.315 222.202 310.953 192.815 290.165C163.429 269.377 143.314 240.449 135.897 208.311C128.481 176.172 134.222 142.812 152.142 113.913C170.063 85.0137 199.054 62.3648 234.176 49.8251C269.298 37.2853 308.377 35.6304 344.756 45.1426C381.135 54.6547 412.562 74.7452 433.682 101.991C454.802 129.237 464.309 161.952 460.583 194.562C456.857 227.173 440.128 257.66 413.247 280.831C398.024 294.024 379.917 304.484 359.973 311.605C340.028 318.726 318.644 322.366 297.057 322.315V322.315ZM297.057 39.9657C207.042 39.9657 133.81 103.089 133.81 180.679C133.81 258.269 207.042 321.392 297.057 321.392C387.072 321.392 460.304 258.269 460.304 180.679C460.304 103.089 387.072 39.9657 297.057 39.9657Z" fill="#3F3D56"/>
<path d="M310.897 306.675C307.854 316.371 297.432 322.375 297.432 322.375C297.432 322.375 291.943 312.661 294.986 302.965C298.028 293.269 308.451 287.265 308.451 287.265C308.451 287.265 313.94 296.98 310.897 306.675Z" fill="#4E9C64"/>
<path d="M283.215 306.675C286.258 316.371 296.68 322.375 296.68 322.375C296.68 322.375 302.169 312.661 299.126 302.965C296.084 293.269 285.661 287.265 285.661 287.265C285.661 287.265 280.172 296.98 283.215 306.675Z" fill="#4E9C64"/>
<path d="M287.687 304.591C296.037 311.598 297.057 322.368 297.057 322.368C297.057 322.368 284.539 321.778 276.189 314.772C267.84 307.766 266.82 296.996 266.82 296.996C266.82 296.996 279.337 297.585 287.687 304.591Z" fill="#3F3D56"/>
<path d="M306.427 304.591C298.077 311.598 297.057 322.368 297.057 322.368C297.057 322.368 309.575 321.778 317.924 314.772C326.274 307.766 327.294 296.996 327.294 296.996C327.294 296.996 314.776 297.585 306.427 304.591Z" fill="#3F3D56"/>
<path d="M283.215 55.2171C286.258 45.5215 296.68 39.5168 296.68 39.5168C296.68 39.5168 302.169 49.2317 299.126 58.9273C296.084 68.6229 285.661 74.6276 285.661 74.6276C285.661 74.6276 280.172 64.9127 283.215 55.2171Z" fill="#4E9C64"/>
<path d="M310.897 55.2171C307.854 45.5215 297.432 39.5168 297.432 39.5168C297.432 39.5168 291.943 49.2317 294.986 58.9273C298.028 68.6229 308.451 74.6276 308.451 74.6276C308.451 74.6276 313.94 64.9127 310.897 55.2171Z" fill="#4E9C64"/>
<path d="M306.427 57.3008C298.077 50.2947 297.057 39.5247 297.057 39.5247C297.057 39.5247 309.575 40.1138 317.924 47.1199C326.274 54.126 327.294 64.896 327.294 64.896C327.294 64.896 314.776 64.3069 306.427 57.3008Z" fill="#3F3D56"/>
<path d="M287.687 57.3008C296.037 50.2947 297.057 39.5247 297.057 39.5247C297.057 39.5247 284.539 40.1138 276.189 47.1199C267.84 54.126 266.82 64.896 266.82 64.896C266.82 64.896 279.337 64.3069 287.687 57.3008Z" fill="#3F3D56"/>
<path d="M220.562 5.84851H7.82959V192.313H220.562V5.84851Z" fill="#4E9C64"/>
<path d="M212.523 10.5812H23.0165H12.2754V20.5012V185.172H23.0165V20.5012H212.523V10.5812Z" fill="#3F3D56"/>
<path opacity="0.3" d="M212.523 10.5812H23.0165H12.2754V20.5012V185.172H23.0165V20.5012H212.523V10.5812Z" fill="black"/>
<path opacity="0.1" d="M181.835 20.5012H173.395H23.0171V44.309H173.395V185.172H212.524V20.5012H181.835Z" fill="black"/>
<path d="M0 0V195.753H224.799V0H0ZM212.524 185.172H12.2757V10.5813H212.524V185.172Z" fill="#3F3D56"/>
<path d="M157.761 202.97C157.761 202.97 167.926 219.946 173.644 223.78C179.362 227.613 164.432 232.268 164.432 232.268L146.96 208.72L157.761 202.97Z" fill="#A0616A"/>
<path d="M96.1348 161.625C96.1348 161.625 143.466 172.303 147.596 179.422C151.725 186.542 164.432 203.792 164.432 203.792L145.69 216.661L127.265 192.839L76.4399 173.125L96.1348 161.625Z" fill="#2F2E41"/>
<path d="M162.844 225.423C162.844 225.423 158.397 222.137 157.126 224.327C155.855 226.518 152.043 237.744 152.043 237.744C152.043 237.744 157.444 242.125 168.562 239.387C168.562 239.387 171.421 237.47 175.868 239.387C180.315 241.304 196.833 237.47 196.198 231.173C195.563 224.875 178.727 225.423 178.727 225.423C178.727 225.423 171.636 218.575 170.734 221.177C169.832 223.78 171.103 224.054 171.103 224.054C171.103 224.054 165.385 229.256 162.844 225.423Z" fill="#2F2E41"/>
<path d="M108.524 219.673L105.347 242.673H120.912C120.912 242.673 119.642 224.875 119.96 222.685C120.277 220.494 108.524 219.673 108.524 219.673Z" fill="#A0616A"/>
<path d="M117.418 169.018C117.418 169.018 125.995 179.97 120.912 180.791C115.83 181.613 111.7 169.018 111.7 169.018H117.418Z" fill="#A0616A"/>
<path d="M52.6158 167.922C52.6158 167.922 46.2626 184.077 71.3577 188.458C96.4527 192.839 104.077 196.399 104.077 196.399L107.253 224.328L129.172 225.423C129.172 225.423 139.654 182.982 125.995 177.506C112.336 172.03 83.4287 165.732 83.4287 165.732L52.6158 167.922Z" fill="#2F2E41"/>
<path d="M107.253 239.113C107.253 239.113 111.7 237.197 112.336 237.197C112.336 237.197 115.128 231.646 120.244 232.231L131.395 246.232C131.395 246.232 148.231 256.637 136.478 259.375C124.724 262.113 115.512 259.923 115.512 259.923L110.747 256.911C110.747 256.911 111.383 253.899 107.253 254.447C107.253 254.447 98.6763 251.435 98.994 249.244C99.3116 247.054 106.059 237.519 106.059 237.519L107.253 239.113Z" fill="#2F2E41"/>
<path d="M109.954 114.666C116.971 114.666 122.66 109.762 122.66 103.714C122.66 97.6647 116.971 92.7611 109.954 92.7611C102.936 92.7611 97.2473 97.6647 97.2473 103.714C97.2473 109.762 102.936 114.666 109.954 114.666Z" fill="#A0616A"/>
<path d="M99.6292 100.291C99.6292 100.291 88.1935 107.41 85.9699 107.684C83.7463 107.958 96.4527 121.374 96.4527 121.374C96.4527 121.374 102.488 112.886 106.3 111.791C110.112 110.696 99.6292 100.291 99.6292 100.291Z" fill="#A0616A"/>
<path d="M91.0522 109.327C91.0522 109.327 86.2873 103.851 83.4284 103.851C80.5694 103.851 54.839 106.315 52.6154 124.66C50.3918 143.006 51.6625 175.041 51.6625 175.041C51.6625 175.041 49.7565 167.101 71.0397 170.387C71.0397 170.387 96.4524 165.732 100.9 165.732C105.347 165.732 107.253 126.577 107.253 126.577L100.02 116.911C100.02 116.911 96.7701 122.196 91.0522 109.327Z" fill="#D0CDE1"/>
<path d="M102.488 124.386L107.253 126.577L112.971 156.696L120.913 172.303C120.913 172.303 112.336 169.758 111.7 172.811L98.9941 156.97L102.488 124.386Z" fill="#D0CDE1"/>
<path d="M107.097 94.7314L114.009 95.4756C113.877 96.6882 113.914 98.1903 115.16 98.7638C115.746 99.0334 116.49 99.0197 117.009 99.3766C118.258 100.235 117.036 102.081 117.742 103.317L119.763 103.778C120.006 104.169 120.337 104.516 120.735 104.797C121.134 105.078 121.594 105.289 122.087 105.416C122.581 105.544 123.099 105.586 123.611 105.541C124.124 105.495 124.621 105.362 125.074 105.151C126.432 104.447 127.124 103.104 127.736 101.844C128.466 100.338 129.211 98.7206 128.846 97.1195C128.453 95.3992 126.823 93.9696 126.749 92.2175C126.715 91.4338 126.907 90.4566 126.141 90.034C125.788 89.8911 125.408 89.8043 125.02 89.7776C123.254 89.4597 122.271 87.8842 120.954 86.8214C118.194 84.5942 113.955 84.6527 110.181 84.8469C109.101 84.8503 108.029 85.0113 107.011 85.3233C105.861 85.8207 104.843 86.5199 104.025 87.3762C102.001 89.2369 100.03 91.1858 98.6949 93.462C97.3597 95.7383 96.702 98.3978 97.4276 100.871C97.3562 100.633 99.7583 99.0757 100.057 98.8262C100.996 98.0425 101.082 97.6683 101.59 96.7666C102.774 94.6647 104.421 94.4432 107.097 94.7314Z" fill="#2F2E41"/>
<path opacity="0.1" d="M86.7642 129.999L87.7174 149.166L101.847 163.449L88.9881 147.523L86.7642 129.999Z" fill="black"/>
<path opacity="0.1" d="M61.3521 135.202L72.47 157.381L86.7645 167.512L71.5167 158.476L61.3521 135.202Z" fill="black"/>
<path d="M121.743 153.179L128.461 157.162C128.796 157.389 129.029 157.709 129.123 158.067C129.216 158.425 129.164 158.8 128.974 159.129L128.076 160.727L128.284 160.851L127.263 162.667L127.055 162.543L119.655 175.706C119.578 175.879 119.457 176.035 119.301 176.162C119.145 176.289 118.957 176.384 118.753 176.441C118.548 176.497 118.331 176.513 118.118 176.487C117.906 176.462 117.702 176.395 117.523 176.292L111.21 172.549C110.825 172.288 110.557 171.92 110.449 171.509C110.342 171.097 110.402 170.665 110.62 170.287L119.963 153.669C120.027 153.524 120.128 153.394 120.258 153.288C120.389 153.181 120.545 153.102 120.716 153.055C120.887 153.008 121.068 152.994 121.246 153.016C121.424 153.037 121.594 153.093 121.743 153.179Z" fill="#3F3D56"/>
<path d="M111.316 170.142L118.547 174.429L127.979 157.651L120.748 153.364L111.316 170.142Z" fill="white"/>
<path d="M108.177 166.449C108.177 166.449 120.777 173.975 116.386 176.329C111.995 178.683 102.848 168.236 102.848 168.236L108.177 166.449Z" fill="#A0616A"/>
<path d="M70.7224 110.696C70.7224 110.696 54.2041 114.803 58.969 127.398C60.1184 130.437 61.5082 133.698 62.9553 136.898C67.5075 146.964 72.6284 156.422 72.6284 156.422L86.9863 167.612L106.3 172.303L108.524 170.66C108.524 170.66 109.159 165.458 106.3 164.91C103.441 164.363 98.9942 162.172 98.9942 162.172L87.5584 147.66C87.5584 147.66 87.2407 111.517 70.7224 110.696Z" fill="#D0CDE1"/>
<path d="M384.69 326.368H592.357V144.343L384.69 144.343V326.368Z" fill="#4E9C64"/>
<path d="M392.536 148.963H577.531H588.016V158.647V319.397H577.531V158.647H392.536V148.963Z" fill="#3F3D56"/>
<path opacity="0.3" d="M392.536 148.963H577.531H588.016V158.647V319.397H577.531V158.647H392.536V148.963Z" fill="black"/>
<path opacity="0.1" d="M422.495 158.647H430.734H577.531V181.888H430.734V319.397H392.536V158.647H422.495Z" fill="black"/>
<path d="M380.553 138.634V329.726H600V138.634H380.553ZM392.537 148.963H588.017V319.397H392.537V148.963Z" fill="#3F3D56"/>
<path d="M508.782 228.726C504.056 221.843 494.707 221.523 494.707 221.523C494.707 221.523 485.597 220.518 479.753 231C474.306 240.771 466.788 250.204 478.543 252.491L480.666 246.795L481.981 252.915C483.654 253.019 485.333 253.044 487.01 252.989C499.598 252.639 511.587 253.092 511.201 249.198C510.688 244.022 513.329 235.348 508.782 228.726Z" fill="#2F2E41"/>
<path d="M474.722 284.273L473.728 299.698L502.889 302.269L503.884 286.273L493.942 280.846L474.722 284.273Z" fill="#A0616A"/>
<path d="M553.095 318.122C552.221 310.835 517.502 307.528 509.158 306.837L506.039 305.268L505.044 296.128C505.044 296.128 474.225 293.843 471.906 293.557C469.586 293.271 467.598 296.985 467.598 297.842C467.598 298.461 467.164 302.883 465.423 305.505C461.663 308.109 450.2 316.303 450.2 319.408C450.2 323.121 459.313 369.823 459.313 369.823L460.307 379.535L469.586 380.963L468.923 350.685C468.923 350.685 472.237 333.261 467.598 328.405V326.406C467.598 326.406 481.205 323.35 486.001 320.023C487.391 319.765 491.296 319.131 493.453 319.683C493.748 319.833 494.089 319.987 494.469 320.144C494.517 320.181 494.563 320.222 494.606 320.264L494.643 320.215C500.847 322.718 516.762 325.875 523.271 324.978C528.291 324.317 533.423 325.121 537.852 327.263C534.206 331.262 536.857 342.687 536.857 342.687L537.189 367.253L541.828 372.108H548.125V358.683C548.125 358.683 554.09 326.406 553.095 318.122Z" fill="#2F2E41"/>
<path d="M491.788 247.568C497.828 247.568 502.724 243.348 502.724 238.142C502.724 232.936 497.828 228.716 491.788 228.716C485.749 228.716 480.853 232.936 480.853 238.142C480.853 243.348 485.749 247.568 491.788 247.568Z" fill="#A0616A"/>
<path d="M485.16 244.141C485.16 244.141 486.817 250.425 484.498 250.996C482.663 251.52 480.888 252.19 479.195 252.996L476.544 260.422V267.849L508.689 270.991L509.683 268.42V264.707L506.038 258.994L504.381 257.566C504.381 257.566 497.09 250.711 498.747 244.141H485.16Z" fill="#A0616A"/>
<path d="M513.825 266.849C513.825 266.849 514.819 276.847 513.825 281.417C512.83 285.987 513.162 292.843 513.162 292.843L505.871 291.7V276.276L507.528 267.992L513.825 266.849Z" fill="#A0616A"/>
<path d="M495.853 227.384C499.586 227.384 502.613 224.775 502.613 221.557C502.613 218.339 499.586 215.731 495.853 215.731C492.119 215.731 489.093 218.339 489.093 221.557C489.093 224.775 492.119 227.384 495.853 227.384Z" fill="#2F2E41"/>
<path d="M488.381 220.024C488.381 218.585 488.999 217.197 490.116 216.127C491.233 215.057 492.769 214.382 494.429 214.23C494.193 214.208 493.956 214.198 493.718 214.197C491.925 214.197 490.206 214.811 488.938 215.904C487.67 216.997 486.958 218.479 486.958 220.024C486.958 221.569 487.67 223.051 488.938 224.144C490.206 225.237 491.925 225.851 493.718 225.851C493.956 225.851 494.193 225.84 494.429 225.818C492.769 225.667 491.233 224.991 490.116 223.921C488.999 222.851 488.381 221.463 488.381 220.024V220.024Z" fill="#2F2E41"/>
<path d="M506.692 228.062L497.456 223.892L484.7 225.598L482.062 235.645L488.631 235.427L490.466 231.736V235.366L493.497 235.265L495.256 229.389L496.356 235.645L507.132 235.455L506.692 228.062Z" fill="#2F2E41"/>
<path d="M469.069 369.943C469.069 369.943 473.772 371.85 475.155 372.566C476.538 373.281 482.07 371.85 480.963 376.142C479.857 380.434 475.155 384.487 475.155 384.487C475.155 384.487 472.942 386.633 472.942 388.063C472.942 389.494 467.409 400.462 460.771 399.985C454.132 399.508 455.239 393.786 455.239 393.786L456.622 387.587C456.622 387.587 459.388 377.096 459.941 377.334C460.494 377.573 461.877 379.242 461.877 379.242C461.877 379.242 468.793 376.857 469.069 369.943Z" fill="#D0CDE1"/>
<path d="M538.034 362.802C538.034 362.802 533.332 364.709 531.949 365.425C530.566 366.14 525.033 364.709 526.14 369.001C527.246 373.293 531.949 377.346 531.949 377.346C531.949 377.346 534.162 379.492 534.162 380.922C534.162 382.353 539.694 393.321 546.333 392.844C552.971 392.367 551.865 386.645 551.865 386.645L550.482 380.446C550.482 380.446 547.716 369.955 547.162 370.193C546.609 370.432 545.226 372.101 545.226 372.101C545.226 372.101 538.311 369.716 538.034 362.802Z" fill="#D0CDE1"/>
<path d="M501.576 294.841V292.574H500.991V291.566C500.991 291.335 500.938 291.105 500.835 290.892C500.733 290.678 500.582 290.483 500.392 290.32C500.202 290.156 499.977 290.026 499.728 289.937C499.48 289.849 499.214 289.803 498.946 289.803H491.932C491.39 289.803 490.87 289.989 490.486 290.32C490.102 290.65 489.887 291.099 489.887 291.566V308.442C489.887 308.91 490.102 309.358 490.486 309.689C490.87 310.02 491.39 310.205 491.932 310.205H498.946C499.488 310.205 500.008 310.02 500.392 309.689C500.776 309.358 500.991 308.91 500.991 308.442V297.863H501.576V295.596H500.991V294.841H501.576Z" fill="#D0CDE1"/>
<path d="M495.731 295.848C496.376 295.848 496.9 295.397 496.9 294.841C496.9 294.284 496.376 293.833 495.731 293.833C495.085 293.833 494.562 294.284 494.562 294.841C494.562 295.397 495.085 295.848 495.731 295.848Z" fill="#3F3D56"/>
<path d="M466.437 261.993L460.472 283.131C460.472 283.131 458.152 287.701 463.454 290.558C468.757 293.414 480.686 297.127 480.686 297.127C480.686 297.127 491.291 309.696 492.616 304.554C493.942 299.413 484.663 292.843 484.663 292.843L468.425 283.988L474.722 269.134L466.437 261.993Z" fill="#A0616A"/>
<path d="M509.518 288.558C509.518 288.558 514.488 287.987 514.157 292.843C513.826 297.699 507.198 298.27 507.198 298.27C507.198 298.27 504.215 309.124 499.907 307.125C495.599 305.125 502.227 294.271 502.227 294.271L507.861 290.558L509.518 288.558Z" fill="#A0616A"/>
<path d="M477.538 260.137L482.84 250.711L472.236 253.853C472.236 253.853 466.271 256.423 465.94 262.422C465.608 268.42 473.561 271.562 473.561 271.562C473.561 271.562 474.887 280.132 474.224 281.274C473.561 282.417 474.224 286.987 474.224 286.987C474.224 286.987 486.982 283.988 493.279 287.701C499.575 291.415 504.711 289.272 504.711 289.272C504.711 289.272 504.38 282.131 507.031 280.989C509.682 279.846 512.002 274.419 509.682 270.991C509.682 270.991 514.984 271.562 514.653 267.278C514.322 262.993 511.671 259.28 507.363 257.566C503.055 255.852 502.578 255.578 502.578 255.578L508.688 265.278V267.849C508.688 267.849 497.872 261.898 487.171 261.402C483.68 261.265 480.252 262.237 477.538 264.136L477.538 264.136V260.137Z" fill="#2F2E41"/>
</g>
<defs>
<clipPath id="clip0">
<rect width="600" height="400" fill="white"/>
</clipPath>
</defs>
</svg>
