<svg width="172" height="172" viewBox="0 0 172 172" fill="none" xmlns="http://www.w3.org/2000/svg">
<path d="M85.7609 108.427C98.353 108.427 108.561 98.2188 108.561 85.6267C108.561 73.0346 98.353 62.8267 85.7609 62.8267C73.1688 62.8267 62.9609 73.0346 62.9609 85.6267C62.9609 98.2188 73.1688 108.427 85.7609 108.427Z" fill="black"/>
<path d="M64.3859 14.3779L51.3472 28.6279H28.7609C20.9234 28.6279 14.5109 35.0404 14.5109 42.8779V128.378C14.5109 136.215 20.9234 142.628 28.7609 142.628H142.761C150.598 142.628 157.011 136.215 157.011 128.378V42.8779C157.011 35.0404 150.598 28.6279 142.761 28.6279H120.175L107.136 14.3779H64.3859ZM85.7609 121.253C66.0959 121.253 50.1359 105.293 50.1359 85.6279C50.1359 65.9629 66.0959 50.0029 85.7609 50.0029C105.426 50.0029 121.386 65.9629 121.386 85.6279C121.386 105.293 105.426 121.253 85.7609 121.253Z" fill="black"/>
</svg>
