<svg width="991" height="769" viewBox="0 0 991 769" fill="none" xmlns="http://www.w3.org/2000/svg">
<path d="M59.797 624.515C61.0161 672.069 68.6387 719.207 82.4403 764.538C82.7462 765.59 83.0859 766.627 83.4163 767.679H167.909C167.821 766.735 167.729 765.683 167.64 764.538C162.007 696.85 194.191 289.788 233.027 219.337C229.625 225.052 53.2458 409.438 59.797 624.515Z" fill="#4E9C64"/>
<path d="M66.1373 764.538C66.8441 765.59 67.5785 766.643 68.3313 767.679H131.72C131.24 766.783 130.683 765.731 130.037 764.538C119.566 744.787 88.5726 685.734 59.8034 624.515C28.8984 558.726 0.52087 490.443 2.91062 465.729C2.17002 471.299 -19.2247 641.221 66.1373 764.538Z" fill="#4E9C64"/>
<path d="M337.215 526.377C337.014 527.153 336.873 527.944 336.792 528.744L275.754 562.246L261.581 552.918L245.316 573.432L268.87 592.494C270.773 594.034 273.102 594.887 275.509 594.926C277.915 594.964 280.268 594.186 282.216 592.708L345.674 544.527C348.41 545.717 351.428 546.007 354.326 545.36C357.224 544.714 359.865 543.16 361.897 540.907C363.93 538.653 365.258 535.806 365.705 532.744C366.151 529.682 365.695 526.551 364.398 523.767C363.1 520.982 361.022 518.677 358.44 517.157C355.858 515.637 352.894 514.975 349.943 515.258C346.993 515.541 344.194 516.757 341.92 518.743C339.646 520.729 338.005 523.392 337.215 526.377Z" fill="#9E616A"/>
<path d="M410.805 753.386L423.044 745.16L398.51 691.911L380.447 704.051L410.805 753.386Z" fill="#9E616A"/>
<path d="M405.114 751.308L429.215 735.108L429.216 735.108C433.29 732.37 438.237 731.436 442.97 732.511C447.703 733.585 451.833 736.58 454.453 740.837L454.774 741.359L415.313 767.882L405.114 751.308Z" fill="#2F2E41"/>
<path d="M234.481 661.92L328.425 599.059C328.425 599.059 345.686 597.318 356.045 618.655L418.612 712.583L391.918 731.461L322.491 656.118L274.849 705.36C274.849 705.36 345.041 693.33 342.667 741.706C340.783 780.097 244.716 766.928 205.14 759.857C197.624 758.574 190.469 755.579 184.184 751.082C177.899 746.586 172.639 740.699 168.775 733.839C164.531 726.145 162.249 717.409 165.814 709.15C175.321 687.128 234.481 661.92 234.481 661.92Z" fill="#2F2E41"/>
<path d="M187.91 714.456L160.837 708.73L168.552 569.859L199.703 529.982L218.262 526.548C223.795 525.499 229.502 526.661 234.254 529.803C239.005 532.946 242.454 537.839 243.916 543.514L252.096 574.747C265.976 599.308 246.532 627.788 244.739 630.319L245.749 673.391L187.91 714.456Z" fill="#D5AF2F"/>
<path d="M213.118 535.421L214.836 529.071C214.836 529.071 233.477 514.711 261.961 551.923L248.312 577.352L218.641 576.111L213.118 535.421Z" fill="#D5AF2F"/>
<path d="M256 486C261.281 508.626 240.464 510.307 215.771 516.602C191.078 522.898 171.86 531.423 166.579 508.798C161.298 486.172 161.715 443.574 196.648 434.668C232.784 425.456 250.719 463.375 256 486Z" fill="#2F2E41"/>
<path d="M208.274 517.525C225.377 517.525 239.242 503.034 239.242 485.159C239.242 467.284 225.377 452.794 208.274 452.794C191.171 452.794 177.306 467.284 177.306 485.159C177.306 503.034 191.171 517.525 208.274 517.525Z" fill="#9E616A"/>
<path d="M172.793 490.937L184.692 487.903L186.356 471.202L190.992 486.297L196.679 484.847L197.65 475.105L200.354 483.91L242.615 473.136C240.554 464.308 235.223 456.697 227.793 451.978C220.363 447.258 211.444 445.816 202.997 447.97L196.872 449.531C192.69 450.598 188.749 452.514 185.276 455.172C181.802 457.83 178.863 461.177 176.627 465.022C174.391 468.867 172.902 473.134 172.244 477.581C171.586 482.027 171.772 486.565 172.793 490.937Z" fill="#2F2E41"/>
<path d="M261.31 645.208C260.566 645.411 259.838 645.675 259.133 645.998L201.034 607.205L201.76 589.717L176.65 585.123L172.487 615.952C172.15 618.442 172.596 620.98 173.757 623.183C174.918 625.386 176.732 627.137 178.925 628.171L250.421 661.884C250.789 664.957 252.044 667.84 254.018 670.15C255.992 672.46 258.592 674.087 261.472 674.814C264.353 675.542 267.377 675.336 270.143 674.224C272.908 673.111 275.284 671.145 276.955 668.587C278.625 666.029 279.511 663 279.494 659.903C279.477 656.805 278.558 653.787 276.859 651.249C275.161 648.711 272.764 646.774 269.986 645.695C267.208 644.615 264.182 644.446 261.31 645.208Z" fill="#9E616A"/>
<path d="M204.401 536.321L200.023 530.553C200.023 530.553 182.442 524.634 172.947 549.442C163.452 574.251 172.354 598.439 172.354 598.439L213.894 602.16L216.861 561.847L204.401 536.321Z" fill="#D5AF2F"/>
<path d="M666.621 172.674H990.999V283.967H978.713V313.074L950.862 283.967H666.621V172.674Z" fill="#4E9C64"/>
<path d="M981.989 183.511H675.63V272.546H981.989V183.511Z" fill="white"/>
<path d="M847.77 209.505H700.266V214.184H847.77V209.505Z" fill="#D5AF2F"/>
<path d="M957.353 225.689H700.266V230.368H957.353V225.689Z" fill="#4E9C64"/>
<path d="M957.102 241.873H700.266V246.552H957.102V241.873Z" fill="#4E9C64"/>
<path d="M797.121 0H472.741V111.294H485.028V140.402L512.878 111.294H797.121V0Z" fill="#4E9C64"/>
<path d="M788.11 10.838H481.751V99.873H788.11V10.838Z" fill="white"/>
<path d="M656.348 37.6885H508.844V42.3669H656.348V37.6885Z" fill="#D5AF2F"/>
<path d="M765.931 53.8724H508.844V58.5508H765.931V53.8724Z" fill="#4E9C64"/>
<path d="M765.68 70.0564H508.844V74.7348H765.68V70.0564Z" fill="#4E9C64"/>
<path d="M395.541 501.627H394.967V485.186C394.967 483.936 394.731 482.699 394.274 481.544C393.816 480.39 393.145 479.341 392.3 478.457C391.455 477.574 390.451 476.873 389.346 476.394C388.241 475.916 387.057 475.67 385.862 475.67H352.533C351.337 475.67 350.153 475.916 349.048 476.394C347.944 476.873 346.94 477.573 346.095 478.457C345.249 479.341 344.578 480.39 344.121 481.544C343.663 482.699 343.428 483.936 343.428 485.186V575.384C343.428 576.634 343.663 577.871 344.121 579.025C344.578 580.18 345.249 581.229 346.095 582.113C346.94 582.996 347.944 583.697 349.048 584.175C350.153 584.654 351.337 584.9 352.533 584.9H385.862C387.057 584.9 388.241 584.654 389.346 584.175C390.451 583.697 391.454 582.996 392.3 582.113C393.145 581.229 393.816 580.18 394.274 579.025C394.731 577.871 394.967 576.634 394.967 575.384V513.33H395.541V501.627Z" fill="#3F3D56"/>
<path d="M386.229 478.146H381.879C382.079 478.658 382.155 479.215 382.101 479.765C382.047 480.316 381.864 480.844 381.569 481.304C381.273 481.764 380.874 482.14 380.406 482.4C379.939 482.661 379.417 482.797 378.888 482.797H359.794C359.264 482.797 358.743 482.661 358.275 482.4C357.807 482.14 357.408 481.764 357.113 481.304C356.817 480.844 356.635 480.316 356.581 479.765C356.526 479.215 356.603 478.658 356.803 478.146H352.74C350.936 478.146 349.207 478.894 347.932 480.227C346.656 481.56 345.94 483.367 345.94 485.252V575.318C345.94 576.251 346.116 577.175 346.458 578.037C346.799 578.899 347.3 579.683 347.932 580.343C348.563 581.003 349.313 581.526 350.137 581.883C350.962 582.24 351.847 582.424 352.74 582.424H386.229C387.122 582.424 388.006 582.24 388.831 581.883C389.656 581.526 390.406 581.003 391.037 580.343C391.668 579.683 392.169 578.899 392.511 578.037C392.853 577.175 393.029 576.251 393.029 575.318V485.252C393.029 484.319 392.853 483.395 392.511 482.533C392.169 481.67 391.668 480.887 391.037 480.227C390.406 479.567 389.656 479.044 388.831 478.687C388.006 478.33 387.122 478.146 386.229 478.146Z" fill="white"/>
<path d="M756.665 328.409H358.342V465.073H373.43V500.814L407.629 465.073H756.665V328.409Z" fill="white"/>
<path d="M371.166 504.005V506.496L372.888 504.696L408.58 467.394H757.928H758.928V466.394V327.088V326.088H757.928H357.078H356.078V327.088V466.394V467.394H357.078H371.166V504.005ZM375.694 463.751V462.751H374.694H360.606L360.606 330.73H754.4V462.751H407.105H406.678L406.383 463.06L375.694 495.134V463.751Z" fill="#4E9C64" stroke="#4E9C64" stroke-width="2"/>
<path d="M583.803 374.689H402.676V380.434H583.803V374.689Z" fill="#D5AF2F"/>
<path d="M718.366 394.562H402.676V400.307H718.366V394.562Z" fill="#4E9C64"/>
<path d="M718.057 414.435H402.676V420.18H718.057V414.435Z" fill="#4E9C64"/>
<path d="M542.229 769H60.5477C60.2124 769 59.8909 768.861 59.6538 768.613C59.4167 768.365 59.2835 768.029 59.2835 767.679C59.2835 767.328 59.4167 766.992 59.6538 766.744C59.8909 766.497 60.2124 766.357 60.5477 766.357H542.229C542.564 766.357 542.886 766.497 543.123 766.744C543.36 766.992 543.493 767.328 543.493 767.679C543.493 768.029 543.36 768.365 543.123 768.613C542.886 768.861 542.564 769 542.229 769Z" fill="#3F3D56"/>
</svg>

