<svg id="visual" viewBox="0 0 900 600" width="900" height="600" xmlns="http://www.w3.org/2000/svg" xmlns:xlink="http://www.w3.org/1999/xlink" version="1.1"><rect x="0" y="0" width="900" height="600" fill="#EBE691"></rect><defs><linearGradient id="grad1_0" x1="33.3%" y1="100%" x2="100%" y2="0%"><stop offset="20%" stop-color="#ebe691" stop-opacity="1"></stop><stop offset="80%" stop-color="#ebe691" stop-opacity="1"></stop></linearGradient></defs><defs><linearGradient id="grad2_0" x1="0%" y1="100%" x2="66.7%" y2="0%"><stop offset="20%" stop-color="#ebe691" stop-opacity="1"></stop><stop offset="80%" stop-color="#ebe691" stop-opacity="1"></stop></linearGradient></defs><g transform="translate(900, 600)"><path d="M-243.4 0C-237.8 -31.8 -232.2 -63.7 -219 -90.7C-205.7 -117.7 -184.7 -139.9 -163.3 -163.3C-142 -186.7 -120.4 -211.3 -93.1 -224.8C-65.9 -238.4 -32.9 -240.9 0 -243.4L0 0Z" fill="#d5af2f"></path></g><g transform="translate(0, 0)"><path d="M243.4 0C228.3 26.4 213.2 52.8 204.2 84.6C195.2 116.3 192.3 153.5 172.1 172.1C151.9 190.7 114.2 190.8 82.7 199.6C51.1 208.3 25.5 225.9 0 243.4L0 0Z" fill="#d5af2f"></path></g></svg>