<svg width="1113" height="884" viewBox="0 0 1113 884" fill="none" xmlns="http://www.w3.org/2000/svg">
<g clip-path="url(#clip0)">
<path d="M551.04 712.317C480.521 712.316 412.184 687.206 357.672 641.265C303.16 595.324 265.847 531.393 252.089 460.367C238.332 389.341 248.982 315.614 282.224 251.747C315.467 187.88 369.245 137.826 434.396 110.113C499.547 82.4004 572.04 78.7433 639.522 99.7651C707.005 120.787 765.302 165.187 804.48 225.4C843.658 285.613 861.294 357.914 854.381 429.983C847.469 502.051 816.437 569.43 766.573 620.637C738.335 649.794 704.745 672.91 667.749 688.647C630.753 704.384 591.084 712.429 551.04 712.317ZM551.04 88.3241C384.063 88.3241 248.217 227.827 248.217 399.301C248.217 570.774 384.063 710.277 551.04 710.277C718.018 710.277 853.863 570.774 853.863 399.301C853.863 227.827 718.018 88.3241 551.04 88.3241Z" fill="#3F3D56"/>
<path d="M576.714 677.752C571.069 699.179 551.736 712.45 551.736 712.45C551.736 712.45 541.554 690.98 547.198 669.553C552.843 648.125 572.176 634.855 572.176 634.855C572.176 634.855 582.358 656.325 576.714 677.752Z" fill="#4E9C64"/>
<path d="M525.364 677.752C531.008 699.179 550.342 712.45 550.342 712.45C550.342 712.45 560.524 690.98 554.88 669.553C549.235 648.125 529.901 634.855 529.901 634.855C529.901 634.855 519.719 656.325 525.364 677.752Z" fill="#4E9C64"/>
<path d="M533.66 673.147C549.148 688.631 551.04 712.432 551.04 712.432C551.04 712.432 527.82 711.13 512.331 695.647C496.843 680.163 494.951 656.362 494.951 656.362C494.951 656.362 518.171 657.664 533.66 673.147Z" fill="#3F3D56"/>
<path d="M568.421 673.147C552.933 688.631 551.041 712.432 551.041 712.432C551.041 712.432 574.261 711.13 589.75 695.647C605.238 680.163 607.13 656.362 607.13 656.362C607.13 656.362 583.91 657.664 568.421 673.147Z" fill="#3F3D56"/>
<path d="M525.364 122.03C531.008 100.603 550.342 87.3321 550.342 87.3321C550.342 87.3321 560.524 108.802 554.88 130.229C549.235 151.657 529.901 164.927 529.901 164.927C529.901 164.927 519.719 143.457 525.364 122.03Z" fill="#4E9C64"/>
<path d="M576.714 122.03C571.069 100.603 551.736 87.3321 551.736 87.3321C551.736 87.3321 541.554 108.802 547.198 130.229C552.843 151.657 572.176 164.927 572.176 164.927C572.176 164.927 582.358 143.457 576.714 122.03Z" fill="#4E9C64"/>
<path d="M568.421 126.635C552.933 111.151 551.041 87.3496 551.041 87.3496C551.041 87.3496 574.261 88.6515 589.75 104.135C605.238 119.618 607.13 143.42 607.13 143.42C607.13 143.42 583.91 142.118 568.421 126.635Z" fill="#3F3D56"/>
<path d="M533.66 126.635C549.148 111.151 551.04 87.3496 551.04 87.3496C551.04 87.3496 527.82 88.6515 512.331 104.135C496.843 119.618 494.951 143.42 494.951 143.42C494.951 143.42 518.171 142.118 533.66 126.635Z" fill="#3F3D56"/>
<path d="M409.143 12.9252H14.5239V425.012H409.143V12.9252Z" fill="#4E9C64"/>
<path d="M394.231 23.3844H42.6957H22.7709V45.3078V409.23H42.6957V45.3078H394.231V23.3844Z" fill="#3F3D56"/>
<path opacity="0.3" d="M394.231 23.3844H42.6957H22.7709V45.3078V409.23H42.6957V45.3078H394.231V23.3844Z" fill="black"/>
<path opacity="0.1" d="M337.303 45.3078H321.648H42.6968V97.923H321.648V409.23H394.232V45.3078H337.303Z" fill="black"/>
<path d="M0 0V432.615H417.003V0H0ZM394.231 409.23H22.7715V23.3846H394.231V409.23Z" fill="#3F3D56"/>
<path d="M292.646 448.564C292.646 448.564 311.503 486.082 322.11 494.554C332.716 503.025 305.021 513.312 305.021 513.312L272.612 461.272L292.646 448.564Z" fill="#FFB8B8"/>
<path d="M178.33 357.191C178.33 357.191 266.13 380.79 273.79 396.524C281.45 412.257 305.021 450.38 305.021 450.38L270.255 478.82L236.077 426.175L141.796 382.606L178.33 357.191Z" fill="#2F2E41"/>
<path d="M302.075 498.184C302.075 498.184 293.826 490.923 291.469 495.764C289.112 500.605 282.041 525.415 282.041 525.415C282.041 525.415 292.058 535.097 312.682 529.046C312.682 529.046 317.985 524.81 326.235 529.046C334.485 533.281 365.126 524.81 363.948 510.892C362.769 496.974 331.538 498.184 331.538 498.184C331.538 498.184 318.384 483.05 316.712 488.802C315.039 494.554 317.396 495.159 317.396 495.159C317.396 495.159 306.789 506.656 302.075 498.184Z" fill="#2F2E41"/>
<path d="M201.312 485.477L195.419 536.307H224.293C224.293 536.307 221.936 496.974 222.525 492.133C223.114 487.292 201.312 485.477 201.312 485.477Z" fill="#FFB8B8"/>
<path d="M217.811 373.529C217.811 373.529 233.72 397.734 224.292 399.549C214.864 401.365 207.204 373.529 207.204 373.529H217.811Z" fill="#FFB8B8"/>
<path d="M97.6023 371.108C97.6023 371.108 85.8172 406.811 132.369 416.493C178.92 426.175 193.062 434.041 193.062 434.041L198.955 495.764L239.613 498.184C239.613 498.184 259.059 404.39 233.721 392.288C208.383 380.185 154.76 366.267 154.76 366.267L97.6023 371.108Z" fill="#2F2E41"/>
<path d="M198.954 528.44C198.954 528.44 207.204 524.205 208.383 524.205C208.383 524.205 213.562 511.937 223.052 513.23L243.738 544.174C243.738 544.174 274.969 567.168 253.166 573.22C231.364 579.271 214.275 574.43 214.275 574.43L205.436 567.773C205.436 567.773 206.615 561.117 198.954 562.327C198.954 562.327 183.045 555.671 183.634 550.83C184.223 545.989 196.739 524.917 196.739 524.917L198.954 528.44Z" fill="#2F2E41"/>
<path d="M203.964 253.412C216.982 253.412 227.535 242.575 227.535 229.207C227.535 215.839 216.982 205.002 203.964 205.002C190.947 205.002 180.394 215.839 180.394 229.207C180.394 242.575 190.947 253.412 203.964 253.412Z" fill="#FFB8B8"/>
<path d="M184.812 221.643C184.812 221.643 163.599 237.376 159.474 237.981C155.349 238.586 178.92 268.237 178.92 268.237C178.92 268.237 190.116 249.479 197.187 247.058C204.258 244.638 184.812 221.643 184.812 221.643Z" fill="#FFB8B8"/>
<path d="M168.902 241.612C168.902 241.612 160.063 229.51 154.76 229.51C149.456 229.51 101.726 234.956 97.6016 275.499C93.4767 316.042 95.8338 386.842 95.8338 386.842C95.8338 386.842 92.2982 369.293 131.779 376.555C131.779 376.555 178.919 366.267 187.169 366.267C195.418 366.267 198.954 279.735 198.954 279.735L185.537 258.373C185.537 258.373 179.508 270.053 168.902 241.612Z" fill="#D5AF2F"/>
<path d="M190.116 274.894L198.955 279.735L209.561 346.298L224.293 380.791C224.293 380.791 208.383 375.166 207.204 381.911L183.634 346.904L190.116 274.894Z" fill="#D5AF2F"/>
<path d="M198.664 209.356L211.487 211.001C211.242 213.681 211.311 217 213.623 218.268C214.709 218.864 216.089 218.833 217.052 219.622C219.369 221.519 217.103 225.599 218.411 228.33L222.161 229.349C222.612 230.214 223.224 230.98 223.964 231.601C224.704 232.223 225.556 232.688 226.472 232.97C227.387 233.252 228.348 233.345 229.299 233.245C230.25 233.144 231.172 232.851 232.012 232.383C234.532 230.829 235.816 227.86 236.95 225.075C238.304 221.747 239.687 218.173 239.009 214.634C238.28 210.832 235.256 207.673 235.119 203.801C235.057 202.069 235.413 199.909 233.991 198.975C233.337 198.659 232.633 198.467 231.912 198.408C228.636 197.706 226.812 194.224 224.369 191.875C219.25 186.953 211.387 187.082 204.387 187.512C202.383 187.519 200.394 187.875 198.506 188.564C196.371 189.664 194.484 191.209 192.966 193.101C189.211 197.214 185.556 201.521 183.079 206.551C180.602 211.582 179.382 217.459 180.728 222.924C180.596 222.398 185.052 218.957 185.606 218.406C187.348 216.674 187.506 215.847 188.449 213.854C190.646 209.209 193.7 208.72 198.664 209.356Z" fill="#2F2E41"/>
<path opacity="0.1" d="M160.948 287.299L162.716 329.658L188.926 361.223L165.073 326.027L160.948 287.299Z" fill="black"/>
<path opacity="0.1" d="M113.808 298.797L134.432 347.812L160.948 370.201L132.663 350.232L113.808 298.797Z" fill="black"/>
<path d="M225.833 338.525L238.295 347.328C238.916 347.83 239.349 348.536 239.523 349.328C239.696 350.12 239.599 350.948 239.247 351.675L237.581 355.207L237.967 355.48L236.073 359.493L235.687 359.22L221.96 388.31C221.818 388.692 221.593 389.037 221.304 389.318C221.014 389.599 220.666 389.81 220.286 389.934C219.907 390.059 219.504 390.094 219.11 390.037C218.715 389.98 218.337 389.833 218.006 389.606L206.295 381.334C205.581 380.756 205.083 379.944 204.883 379.034C204.684 378.124 204.796 377.171 205.2 376.335L222.531 339.607C222.65 339.288 222.837 339 223.079 338.766C223.321 338.531 223.611 338.355 223.929 338.251C224.246 338.147 224.582 338.117 224.911 338.165C225.241 338.212 225.556 338.335 225.833 338.525Z" fill="#3F3D56"/>
<path d="M206.492 376.014L219.905 385.489L237.402 348.409L223.988 338.934L206.492 376.014Z" fill="white"/>
<path d="M200.668 367.851C200.668 367.851 224.042 384.485 215.896 389.687C207.751 394.89 190.783 371.801 190.783 371.801L200.668 367.851Z" fill="#FFB8B8"/>
<path d="M131.19 244.638C131.19 244.638 100.549 253.715 109.387 281.55C111.52 288.265 114.098 295.473 116.782 302.545C125.226 324.79 134.726 345.693 134.726 345.693L161.36 370.423L197.187 380.79L201.312 377.16C201.312 377.16 202.49 365.662 197.187 364.452C191.884 363.242 183.634 358.401 183.634 358.401L162.421 326.329C162.421 326.329 161.831 246.453 131.19 244.638Z" fill="#D5AF2F"/>
<path d="M713.599 721.272H1098.82V318.997L713.599 318.997V721.272Z" fill="#4E9C64"/>
<path d="M728.155 329.208H1071.32H1090.77V350.609V705.867H1071.32V350.609H728.155V329.208Z" fill="#3F3D56"/>
<path opacity="0.3" d="M728.155 329.208H1071.32H1090.77V350.609V705.867H1071.32V350.609H728.155V329.208Z" fill="black"/>
<path opacity="0.1" d="M783.729 350.609H799.011H1071.32V401.971H799.011V705.867H728.155V350.609H783.729Z" fill="black"/>
<path d="M705.926 306.38V728.694H1113V306.38H705.926ZM728.156 329.208H1090.77V705.867H728.156V329.208Z" fill="#3F3D56"/>
<path d="M943.79 505.484C935.024 490.274 917.682 489.565 917.682 489.565C917.682 489.565 900.782 487.346 889.942 510.511C879.837 532.103 865.892 552.951 887.697 558.005L891.635 545.417L894.074 558.942C897.179 559.172 900.293 559.226 903.404 559.106C926.755 558.332 948.993 559.333 948.277 550.728C947.325 539.289 952.224 520.119 943.79 505.484Z" fill="#2F2E41"/>
<path d="M880.609 628.244L878.765 662.333L932.86 668.014L934.705 632.663L916.262 620.67L880.609 628.244Z" fill="#FFB8B8"/>
<path d="M1025.99 703.05C1024.37 686.946 959.966 679.636 944.489 678.11L938.701 674.643L936.857 654.442C936.857 654.442 879.688 649.392 875.385 648.761C871.082 648.129 867.394 656.336 867.394 658.23C867.394 659.598 866.59 669.372 863.36 675.166C856.385 680.921 835.121 699.03 835.121 705.891C835.121 714.097 852.026 817.31 852.026 817.31L853.87 838.773L871.082 841.929L869.853 775.014C869.853 775.014 876 736.507 867.394 725.776V721.357C867.394 721.357 892.636 714.603 901.532 707.25C904.11 706.681 911.354 705.28 915.355 706.499C915.903 706.83 916.536 707.171 917.239 707.518C917.329 707.601 917.414 707.69 917.494 707.784L917.563 707.675C929.071 713.207 958.593 720.184 970.667 718.2C979.979 716.741 989.499 718.518 997.715 723.25C990.953 732.088 995.871 757.339 995.871 757.339L996.485 811.628L1005.09 822.36H1016.77V792.69C1016.77 792.69 1027.84 721.357 1025.99 703.05Z" fill="#2F2E41"/>
<path d="M912.267 547.126C923.471 547.126 932.553 537.8 932.553 526.294C932.553 514.789 923.471 505.462 912.267 505.462C901.064 505.462 891.981 514.789 891.981 526.294C891.981 537.8 901.064 547.126 912.267 547.126Z" fill="#FFB8B8"/>
<path d="M899.973 539.551C899.973 539.551 903.046 553.439 898.743 554.702C895.339 555.86 892.047 557.339 888.908 559.12L883.99 575.533V591.947L943.618 598.89L945.462 593.209V585.003L938.7 572.377L935.626 569.221C935.626 569.221 922.103 554.07 925.176 539.551H899.973Z" fill="#FFB8B8"/>
<path d="M953.145 589.737C953.145 589.737 954.989 611.831 953.145 621.932C951.3 632.032 951.915 647.183 951.915 647.183L938.391 644.658V610.569L941.465 592.262L953.145 589.737Z" fill="#FFB8B8"/>
<path d="M919.807 502.519C926.732 502.519 932.347 496.754 932.347 489.642C932.347 482.53 926.732 476.765 919.807 476.765C912.882 476.765 907.268 482.53 907.268 489.642C907.268 496.754 912.882 502.519 919.807 502.519Z" fill="#2F2E41"/>
<path d="M905.947 486.253C905.947 483.073 907.094 480.005 909.165 477.641C911.237 475.277 914.087 473.783 917.167 473.448C916.728 473.401 916.287 473.377 915.847 473.376C912.521 473.376 909.331 474.733 906.98 477.148C904.628 479.563 903.307 482.838 903.307 486.253C903.307 489.668 904.628 492.944 906.98 495.359C909.331 497.774 912.521 499.13 915.847 499.13C916.287 499.13 916.728 499.106 917.167 499.058C914.087 498.723 911.237 497.23 909.165 494.865C907.094 492.501 905.947 489.434 905.947 486.253Z" fill="#2F2E41"/>
<path d="M939.913 504.018L922.78 494.802L899.119 498.572L894.225 520.775L906.41 520.293L909.815 512.137V520.159L915.437 519.937L918.701 506.95L920.74 520.775L940.729 520.356L939.913 504.018Z" fill="#2F2E41"/>
<path d="M870.123 817.574C870.123 817.574 878.846 821.789 881.412 823.37C883.977 824.951 894.24 821.789 892.187 831.274C890.135 840.759 881.412 849.716 881.412 849.716C881.412 849.716 877.307 854.459 877.307 857.62C877.307 860.782 867.045 885.02 854.73 883.966C842.415 882.913 844.468 870.266 844.468 870.266L847.033 856.566C847.033 856.566 852.164 833.381 853.191 833.908C854.217 834.435 856.782 838.124 856.782 838.124C856.782 838.124 869.61 832.855 870.123 817.574Z" fill="black"/>
<path d="M998.053 801.792C998.053 801.792 989.33 806.007 986.765 807.588C984.199 809.169 973.937 806.007 975.989 815.492C978.042 824.977 986.765 833.935 986.765 833.935C986.765 833.935 990.87 838.677 990.87 841.839C990.87 845 1001.13 869.239 1013.45 868.185C1025.76 867.131 1023.71 854.485 1023.71 854.485L1021.14 840.785C1021.14 840.785 1016.01 817.6 1014.99 818.127C1013.96 818.654 1011.39 822.342 1011.39 822.342C1011.39 822.342 998.566 817.073 998.053 801.792Z" fill="black"/>
<path d="M930.423 651.598V646.588H929.339V644.361C929.339 643.85 929.24 643.343 929.05 642.87C928.859 642.397 928.58 641.968 928.227 641.606C927.875 641.244 927.457 640.957 926.996 640.761C926.536 640.566 926.042 640.465 925.544 640.465H912.535C911.528 640.465 910.563 640.875 909.852 641.606C909.14 642.337 908.74 643.328 908.74 644.361V681.657C908.74 682.691 909.14 683.682 909.852 684.413C910.563 685.143 911.528 685.554 912.535 685.554H925.544C926.551 685.554 927.516 685.143 928.227 684.413C928.939 683.682 929.339 682.691 929.339 681.657V658.278H930.423V653.268H929.339V651.598H930.423Z" fill="#D5AF2F"/>
<path d="M919.581 653.825C920.778 653.825 921.749 652.828 921.749 651.598C921.749 650.368 920.778 649.371 919.581 649.371C918.383 649.371 917.413 650.368 917.413 651.598C917.413 652.828 918.383 653.825 919.581 653.825Z" fill="#3F3D56"/>
<path d="M865.24 579.005L854.175 625.719C854.175 625.719 849.872 635.82 859.708 642.132C869.543 648.445 891.673 656.652 891.673 656.652C891.673 656.652 911.344 684.427 913.803 673.065C916.262 661.702 899.05 647.183 899.05 647.183L868.929 627.613L880.608 594.787L865.24 579.005Z" fill="#FFB8B8"/>
<path d="M945.155 637.713C945.155 637.713 954.376 636.451 953.761 647.183C953.146 657.914 940.852 659.177 940.852 659.177C940.852 659.177 935.32 683.165 927.328 678.746C919.337 674.327 931.631 650.339 931.631 650.339L942.082 642.132L945.155 637.713Z" fill="#FFB8B8"/>
<path d="M885.833 574.902L895.668 554.07L875.997 561.014C875.997 561.014 864.932 566.696 864.318 579.952C863.703 593.209 878.456 600.153 878.456 600.153C878.456 600.153 880.915 619.091 879.686 621.616C878.456 624.141 879.686 634.242 879.686 634.242C879.686 634.242 903.352 627.613 915.032 635.82C926.712 644.026 936.24 639.292 936.24 639.292C936.24 639.292 935.625 623.51 940.543 620.985C945.461 618.46 949.764 606.466 945.461 598.89C945.461 598.89 955.296 600.153 954.681 590.684C954.067 581.215 949.149 573.008 941.158 569.221C933.166 565.433 932.283 564.828 932.283 564.828L943.617 586.265V591.947C943.617 591.947 923.553 578.795 903.702 577.699C897.226 577.395 890.867 579.545 885.833 583.74L885.833 583.74V574.902Z" fill="#D5AF2F"/>
</g>
<defs>
<clipPath id="clip0">
<rect width="1113" height="884" fill="white"/>
</clipPath>
</defs>
</svg>
