<svg width="1016" height="688" viewBox="0 0 1016 688" fill="none" xmlns="http://www.w3.org/2000/svg">
<g clip-path="url(#clip0)">
<path d="M777.874 680.22C764.866 667.771 756.965 648.105 759.037 628.96C761.109 609.814 773.943 592.214 790.59 588.149C807.236 584.083 826.213 595.337 831.269 613.756C834.052 578.245 837.258 541.247 853.927 511.007C869.02 483.625 895.161 464.032 923.492 460.527C951.823 457.022 981.652 470.26 999.322 495.588C1016.99 520.916 1021.32 557.737 1008.94 586.815C999.826 608.236 983.03 624.178 965.433 637.147C908.57 678.703 840.37 695.602 773.381 684.735L777.874 680.22Z" fill="#4E9C64"/>
<path d="M971.305 470.994C947.929 492.56 926.483 516.681 907.278 543.006C877.223 584.064 852.903 630.098 835.163 679.503C833.865 683.108 839.032 684.677 840.316 681.112C869.341 600.818 915.676 530.048 975.084 475.274C977.752 472.813 973.951 468.554 971.305 470.994Z" fill="#3F3D56"/>
<path d="M327.067 676.837C344.933 659.738 355.785 632.727 352.939 606.431C350.093 580.135 332.466 555.961 309.602 550.377C286.737 544.793 260.673 560.251 253.728 585.549C249.906 536.775 245.502 485.958 222.608 444.423C201.878 406.814 165.973 379.903 127.06 375.089C88.1469 370.275 47.1765 388.458 22.908 423.245C-1.36062 458.033 -7.30267 508.607 9.6944 548.546C22.2155 577.968 45.2839 599.864 69.4538 617.677C146.564 674.508 242.22 698.21 333.237 683.039" fill="#4E9C64"/>
<path d="M61.3883 389.466C93.4962 419.087 122.952 452.217 149.329 488.374C175.711 524.495 198.937 563.429 218.681 604.63C229.718 627.741 239.632 651.518 248.379 675.853C250.163 680.804 243.066 682.959 241.302 678.063C225.808 635.16 206.638 594.079 184.068 555.411C161.608 516.883 135.902 480.914 107.309 448.008C91.1375 429.406 74.0748 411.824 56.1985 395.344C52.5343 391.965 57.7544 386.114 61.3883 389.466L61.3883 389.466Z" fill="#3F3D56"/>
<path d="M729.301 686.494H303.048V191.134C303.048 85.742 378.749 0 471.797 0H560.552C653.601 0 729.301 85.742 729.301 191.134V686.494Z" fill="#4E9C64"/>
<path d="M640.547 686.494H303.048V191.134C302.955 150.75 314.245 111.387 335.275 78.7757C336.05 77.5789 336.823 76.3976 337.621 75.2293C347.793 60.1185 359.898 46.8108 373.536 35.7452C374.306 35.1103 375.08 34.4864 375.865 33.8625C387.277 24.9175 399.622 17.6051 412.619 12.0918C413.39 11.7605 414.176 11.4285 414.962 11.1101C426.716 6.35893 438.901 3.10443 451.291 1.40665C452.059 1.2878 452.847 1.1948 453.636 1.1018C465.71 -0.360431 477.887 -0.360431 489.962 1.1018C490.748 1.1948 491.537 1.28779 492.314 1.40792C504.701 3.10581 516.882 6.35991 528.633 11.1101C529.419 11.4285 530.205 11.7605 530.979 12.0925C543.815 17.5362 556.015 24.7395 567.306 33.5415C568.09 34.1519 568.875 34.7758 569.649 35.3997C577.293 41.5804 584.474 48.4662 591.117 55.9866C596.445 62.0187 601.409 68.4487 605.977 75.2332C606.772 76.3977 607.545 77.579 608.319 78.7738C629.349 111.385 640.64 150.749 640.547 191.134V686.494Z" fill="#D5AF2F"/>
<path d="M613.103 464.938C623.423 464.938 631.788 455.462 631.788 443.774C631.788 432.086 623.423 422.61 613.103 422.61C602.784 422.61 594.418 432.086 594.418 443.774C594.418 455.462 602.784 464.938 613.103 464.938Z" fill="#D5AF2F"/>
<path d="M694.382 671.657H680.065L673.253 609.108L694.385 609.109L694.382 671.657Z" fill="#FFB8B8"/>
<path d="M669.838 667.023H697.45V686.715H652.453C652.453 684.129 652.902 681.568 653.776 679.179C654.65 676.79 655.93 674.619 657.545 672.791C659.159 670.962 661.076 669.512 663.185 668.522C665.294 667.533 667.555 667.023 669.838 667.023Z" fill="#2F2E41"/>
<path d="M765.619 671.657H751.302L744.49 609.108L765.621 609.109L765.619 671.657Z" fill="#FFB8B8"/>
<path d="M741.075 667.023H768.686V686.715H723.69C723.69 684.129 724.139 681.568 725.013 679.179C725.887 676.79 727.167 674.619 728.782 672.791C730.396 670.962 732.312 669.512 734.422 668.522C736.531 667.533 738.792 667.023 741.075 667.023Z" fill="#2F2E41"/>
<path d="M622.56 447.967C621.53 446.248 620.845 444.294 620.554 442.243C620.263 440.192 620.372 438.094 620.874 436.096C621.376 434.098 622.259 432.249 623.461 430.679C624.662 429.11 626.153 427.857 627.827 427.011L676.497 275.074L700.446 289.877L644.875 435.073C645.945 438.354 645.914 441.966 644.79 445.223C643.665 448.48 641.525 451.157 638.774 452.747C636.023 454.336 632.853 454.727 629.865 453.846C626.877 452.965 624.278 450.873 622.56 447.967Z" fill="#FFB8B8"/>
<path d="M758.306 476.516C756.715 475.483 755.343 474.067 754.287 472.368C753.231 470.67 752.517 468.73 752.195 466.685C751.873 464.64 751.951 462.539 752.423 460.532C752.895 458.525 753.75 456.659 754.927 455.066L739.85 294.343L767.104 295.753L773.37 453.846C775.601 456.264 776.972 459.524 777.222 463.01C777.472 466.496 776.585 469.965 774.728 472.76C772.871 475.554 770.174 477.48 767.147 478.172C764.12 478.865 760.974 478.275 758.306 476.516Z" fill="#FFB8B8"/>
<path d="M714.827 246.931C730.668 246.931 743.51 232.386 743.51 214.444C743.51 196.501 730.668 181.956 714.827 181.956C698.986 181.956 686.144 196.501 686.144 214.444C686.144 232.386 698.986 246.931 714.827 246.931Z" fill="#FFB8B8"/>
<path d="M758.122 439.963H671.649L671.753 439.201C671.909 438.061 687.165 324.866 675.913 287.833C674.784 284.194 674.883 280.21 676.192 276.649C677.5 273.088 679.925 270.201 683.001 268.543H683.001C699.084 259.965 729.956 249.402 756.013 275.037C759.847 278.871 762.841 283.663 764.759 289.034C766.676 294.405 767.464 300.208 767.06 305.983L758.122 439.963Z" fill="#D5AF2F"/>
<path d="M688.258 341.594L649.326 332.648L667.575 283.668C668.667 278.924 671.376 274.864 675.107 272.379C678.838 269.894 683.287 269.187 687.478 270.412C691.669 271.638 695.26 274.696 697.463 278.916C699.666 283.136 700.301 288.174 699.23 292.924L688.258 341.594Z" fill="#D5AF2F"/>
<path d="M738.119 358.205L735.778 297.437C734.003 286.013 739.777 275.215 748.656 273.449C757.538 271.691 766.21 279.614 767.993 291.121L776.79 347.902L738.119 358.205Z" fill="#D5AF2F"/>
<path d="M755.245 432.688C769.159 492.709 770.677 569.02 766.924 652.26L748.238 649.615L714.372 490.888L695.687 652.26L674.666 650.937C668.386 563.598 662.272 488.619 672.33 439.301L755.245 432.688Z" fill="#2F2E41"/>
<path d="M733.726 239.551C728.375 246.007 718.438 242.541 717.741 233.721C717.686 233.036 717.69 232.347 717.752 231.663C718.112 227.757 720.105 224.21 719.628 220.085C719.52 219.058 719.182 218.08 718.647 217.242C714.383 210.775 704.373 220.135 700.349 214.28C697.882 210.691 700.782 205.038 698.889 201.026C696.389 195.73 688.987 198.343 684.345 195.443C679.18 192.216 679.489 183.24 682.889 177.781C687.035 171.123 694.305 167.57 701.484 167.058C708.664 166.546 715.793 168.744 722.496 171.703C730.111 175.064 737.663 179.71 742.35 187.294C748.049 196.518 748.597 208.918 745.747 219.703C744.013 226.264 738.096 234.279 733.726 239.551Z" fill="#2F2E41"/>
<path d="M980.944 687.345H118.752C118.384 687.344 118.032 687.178 117.772 686.882C117.512 686.587 117.366 686.187 117.366 685.77C117.366 685.353 117.512 684.953 117.772 684.658C118.032 684.363 118.384 684.197 118.752 684.195H980.944C981.312 684.197 981.665 684.363 981.925 684.658C982.185 684.953 982.331 685.353 982.331 685.77C982.331 686.187 982.185 686.587 981.925 686.882C981.665 687.178 981.312 687.344 980.944 687.345Z" fill="#3F3D56"/>
<path d="M547.706 542.978H395.89C393.89 542.991 391.968 542.104 390.545 540.513C389.122 538.922 388.314 536.757 388.299 534.493V150.678C388.314 148.414 389.122 146.249 390.545 144.658C391.968 143.067 393.89 142.181 395.89 142.193H547.706C549.705 142.181 551.627 143.067 553.05 144.658C554.473 146.249 555.281 148.414 555.297 150.678V534.493C555.281 536.757 554.473 538.922 553.05 540.513C551.627 542.104 549.705 542.991 547.706 542.978Z" fill="#EBE691"/>
<path d="M555.297 266.383H388.299V269.029H555.297V266.383Z" fill="#3F3D56"/>
<path d="M555.88 417.32H388.883V419.965H555.88V417.32Z" fill="#3F3D56"/>
<path d="M443.186 142.193H440.851V544.301H443.186V142.193Z" fill="#3F3D56"/>
<path d="M501.577 142.193H499.241V544.301H501.577V142.193Z" fill="#3F3D56"/>
</g>
<defs>
<clipPath id="clip0">
<rect width="1016" height="688" fill="white"/>
</clipPath>
</defs>
</svg>

